<svg xmlns="http://www.w3.org/2000/svg" viewBox="0 0 64 64"><rect width="64" height="64" rx="16" fill="#111"/><path fill="#fff" d="M32 12c-11 0-20 9-20 20 0 8.8 5.7 16.3 13.6 18.9 1 .2 1.4-.4 1.4-1v-3.5c-5.5 1.2-6.7-2.6-6.7-2.6-.9-2.2-2.2-2.8-2.2-2.8-1.8-1.2.1-1.2.1-1.2 2 .1 3 2.1 3 2.1 1.8 3 4.7 2.1 5.8 1.6.2-1.3.7-2.1 1.3-2.6-4.4-.5-9-2.2-9-9.7 0-2.1.8-3.8 2-5.2-.2-.5-.9-2.5.2-5.2 0 0 1.7-.5 5.5 2 1.6-.4 3.3-.6 5-.6s3.4.2 5 .6c3.8-2.5 5.5-2 5.5-2 1.1 2.7.4 4.7.2 5.2 1.2 1.4 2 3.1 2 5.2 0 7.5-4.6 9.2-9 9.7.7.6 1.4 1.8 1.4 3.6v5.3c0 .6.4 1.2 1.4 1C46.3 48.3 52 40.8 52 32c0-11-9-20-20-20z"/></svg>